<svg xmlns="http://www.w3.org/2000/svg" version="1.1" xmlns:xlink="http://www.w3.org/1999/xlink" xmlns:svgjs="http://svgjs.dev/svgjs" width="1000" height="1000" viewBox="0 0 1000 1000"><rect width="1000" height="1000" fill="#000000"></rect><g transform="matrix(0.7,0,0,0.7,149.84897959183667,150.19913061224486)"><svg viewBox="0 0 343 343" data-background-color="#ffffff" preserveAspectRatio="xMidYMid meet" height="999" width="1000" xmlns="http://www.w3.org/2000/svg" xmlns:xlink="http://www.w3.org/1999/xlink"><g id="tight-bounds" transform="matrix(1,0,0,1,0.0740000000000407,0.07400000000001228)"><svg viewBox="0 0 342.85155851775386 342.85155851775386" height="342.85155851775386" width="342.85155851775386"><g><svg></svg></g><g><svg viewBox="0 0 342.85155851775386 342.85155851775386" height="342.85155851775386" width="342.85155851775386"><g><path d="M0 171.426c0-94.676 76.75-171.426 171.426-171.426 94.676 0 171.426 76.75 171.426 171.426 0 94.676-76.75 171.426-171.426 171.426-94.676 0-171.426-76.75-171.426-171.426zM171.426 342.128c94.276 0 170.702-76.426 170.702-170.702 0-94.276-76.426-170.702-170.702-170.702-94.276 0-170.702 76.426-170.702 170.702 0 94.276 76.426 170.702 170.702 170.702z" data-fill-palette-color="tertiary" fill="#ffffff" stroke="transparent"></path><ellipse rx="164.56874808852186" ry="164.56874808852186" cx="171.42577925887693" cy="171.42577925887693" fill="#ffffff" stroke="transparent" stroke-width="0" fill-opacity="1" data-fill-palette-color="tertiary"></ellipse></g><g transform="matrix(1,0,0,1,64.84655864529837,117.60237681237986)"><svg viewBox="0 0 213.1584412271571 107.64680489299414" height="107.64680489299414" width="213.1584412271571"><g><svg viewBox="0 0 450.8659284465276 227.69108440167454" height="107.64680489299414" width="213.1584412271571"><g transform="matrix(1,0,0,1,0,98.11232741354632)"><svg viewBox="0 0 213.1584412271571 31.466429574581888" height="31.466429574581888" width="213.1584412271571"><g id="textblocktransform"><svg viewBox="0 0 213.1584412271571 31.466429574581888" height="31.466429574581888" width="213.1584412271571" id="textblock"><g><svg viewBox="0 0 213.1584412271571 16.971488533685722" height="16.971488533685722" width="213.1584412271571"><g transform="matrix(1,0,0,1,0,0)"><svg width="213.1584412271571" viewBox="5.199999809265137 -37.650001525878906 493.5699768066406 39.30000305175781" height="16.971488533685722" data-palette-color="#ffffff"><path d="M5.2-36.15L14.5-36.15Q19.95-36.15 23.08-33.93 26.2-31.7 26.2-27L26.2-27Q26.2-24.15 24.9-22.05 23.6-19.95 21.28-18.75 18.95-17.55 15.8-17.4L15.8-17.4 15.1-19.9Q18.75-19.8 21.65-18.6 24.55-17.4 26.25-15.25 27.95-13.1 27.95-10.15L27.95-10.15Q27.95-7.45 26.95-5.53 25.95-3.6 24.25-2.38 22.55-1.15 20.4-0.58 18.25 0 15.95 0L15.95 0 5.2 0 5.2-36.15ZM10.05-20.3L15.5-20.3Q18.5-20.3 19.85-21.98 21.2-23.65 21.2-26.05L21.2-26.05Q21.2-28.9 19.45-30.2 17.7-31.5 14.75-31.5L14.75-31.5 10.05-31.5 10.05-20.3ZM10.05-4.5L15.7-4.5Q17.7-4.5 19.38-5.1 21.05-5.7 22.03-6.95 23-8.2 23-10.1L23-10.1Q23-12.2 21.88-13.4 20.75-14.6 19-15.13 17.25-15.65 15.4-15.65L15.4-15.65 10.05-15.65 10.05-4.5ZM33.85-18.05L33.85-18.05Q33.85-21.8 35.27-25.13 36.7-28.45 39.25-31.03 41.8-33.6 45.12-35.08 48.45-36.55 52.3-36.55L52.3-36.55Q56.1-36.55 59.42-35.08 62.75-33.6 65.32-31.03 67.9-28.45 69.35-25.13 70.8-21.8 70.8-18.05L70.8-18.05Q70.8-14.2 69.35-10.85 67.9-7.5 65.32-4.98 62.75-2.45 59.42-1.03 56.1 0.4 52.3 0.4L52.3 0.4Q48.45 0.4 45.12-1 41.8-2.4 39.25-4.9 36.7-7.4 35.27-10.75 33.85-14.1 33.85-18.05ZM38.85-18L38.85-18Q38.85-15.15 39.9-12.68 40.95-10.2 42.8-8.3 44.65-6.4 47.1-5.33 49.55-4.25 52.4-4.25L52.4-4.25Q55.2-4.25 57.65-5.33 60.1-6.4 61.9-8.3 63.7-10.2 64.75-12.68 65.8-15.15 65.8-18.05L65.8-18.05Q65.8-20.9 64.75-23.43 63.7-25.95 61.85-27.85 60-29.75 57.55-30.83 55.1-31.9 52.3-31.9L52.3-31.9Q49.45-31.9 47-30.8 44.55-29.7 42.7-27.8 40.85-25.9 39.85-23.38 38.85-20.85 38.85-18ZM76.7-18.05L76.7-18.05Q76.7-21.8 78.12-25.13 79.55-28.45 82.09-31.03 84.65-33.6 87.97-35.08 91.3-36.55 95.15-36.55L95.15-36.55Q98.95-36.55 102.27-35.08 105.59-33.6 108.17-31.03 110.75-28.45 112.2-25.13 113.65-21.8 113.65-18.05L113.65-18.05Q113.65-14.2 112.2-10.85 110.75-7.5 108.17-4.98 105.59-2.45 102.27-1.03 98.95 0.4 95.15 0.4L95.15 0.4Q91.3 0.4 87.97-1 84.65-2.4 82.09-4.9 79.55-7.4 78.12-10.75 76.7-14.1 76.7-18.05ZM81.7-18L81.7-18Q81.7-15.15 82.75-12.68 83.8-10.2 85.65-8.3 87.5-6.4 89.95-5.33 92.4-4.25 95.25-4.25L95.25-4.25Q98.05-4.25 100.5-5.33 102.95-6.4 104.75-8.3 106.55-10.2 107.59-12.68 108.65-15.15 108.65-18.05L108.65-18.05Q108.65-20.9 107.59-23.43 106.55-25.95 104.7-27.85 102.84-29.75 100.4-30.83 97.95-31.9 95.15-31.9L95.15-31.9Q92.3-31.9 89.84-30.8 87.4-29.7 85.55-27.8 83.7-25.9 82.7-23.38 81.7-20.85 81.7-18ZM126.69-36.15L126.69-21.6 126.54-19.8 127.19-20.7 141.99-36.15 148.24-36.15 133.29-20.65 149.09 0 142.94 0 129.74-17.55 126.69-14.6 126.69 0 121.79 0 121.79-36.15 126.69-36.15ZM176.29-33.4L174.44-29.7Q172.59-30.65 170.39-31.35 168.19-32.05 166.09-32.05L166.09-32.05Q163.19-32.05 161.47-30.7 159.74-29.35 159.74-27.1L159.74-27.1Q159.74-25.4 160.84-24.23 161.94-23.05 163.74-22.2 165.54-21.35 167.49-20.6L167.49-20.6Q169.19-19.95 170.84-19.15 172.49-18.35 173.82-17.15 175.14-15.95 175.92-14.2 176.69-12.45 176.69-9.85L176.69-9.85Q176.69-7 175.27-4.65 173.84-2.3 171.19-0.95 168.54 0.4 164.89 0.4L164.89 0.4Q162.49 0.4 160.32-0.15 158.14-0.7 156.29-1.58 154.44-2.45 152.99-3.4L152.99-3.4 155.14-7.2Q156.34-6.35 157.89-5.58 159.44-4.8 161.14-4.33 162.84-3.85 164.44-3.85L164.44-3.85Q166.14-3.85 167.82-4.48 169.49-5.1 170.59-6.4 171.69-7.7 171.69-9.85L171.69-9.85Q171.69-11.7 170.72-12.93 169.74-14.15 168.14-15.03 166.54-15.9 164.74-16.6L164.74-16.6Q163.04-17.25 161.29-18.03 159.54-18.8 158.04-19.93 156.54-21.05 155.64-22.7 154.74-24.35 154.74-26.7L154.74-26.7Q154.74-29.55 156.12-31.68 157.49-33.8 159.89-35.02 162.29-36.25 165.39-36.35L165.39-36.35Q168.89-36.35 171.57-35.5 174.24-34.65 176.29-33.4L176.29-33.4ZM201.79 0L197.04 0 212.84-37.65 213.14-37.65 228.89 0 223.34 0 211.54-30.05 214.99-32.3 201.79 0ZM204.89-9.5L206.29-13.7 219.74-13.7 221.34-9.5 204.89-9.5ZM267.13 1.15L266.98 1.15 239.03-27.2 240.43-26.85 240.53 0 235.68 0 235.68-37.25 235.93-37.25 263.58-8.8 262.43-9.05 262.33-36.15 267.13-36.15 267.13 1.15ZM289.13 0L277.53 0 277.53-36.15 287.38-36.15Q292.73-36.15 296.51-34.5 300.28-32.85 302.58-30.15 304.88-27.45 305.96-24.18 307.03-20.9 307.03-17.65L307.03-17.65Q307.03-13.55 305.61-10.3 304.18-7.05 301.68-4.75 299.18-2.45 295.96-1.23 292.73 0 289.13 0L289.13 0ZM282.38-31.5L282.38-4.65 288.18-4.65Q291.18-4.65 293.71-5.55 296.23-6.45 298.11-8.15 299.98-9.85 301.03-12.33 302.08-14.8 302.08-17.95L302.08-17.95Q302.08-21.3 300.98-23.83 299.88-26.35 297.98-28.05 296.08-29.75 293.68-30.63 291.28-31.5 288.63-31.5L288.63-31.5 282.38-31.5ZM330.98-36.15L340.28-36.15Q345.73-36.15 348.85-33.93 351.98-31.7 351.98-27L351.98-27Q351.98-24.15 350.68-22.05 349.38-19.95 347.05-18.75 344.73-17.55 341.58-17.4L341.58-17.4 340.88-19.9Q344.53-19.8 347.43-18.6 350.33-17.4 352.03-15.25 353.73-13.1 353.73-10.15L353.73-10.15Q353.73-7.45 352.73-5.53 351.73-3.6 350.03-2.38 348.33-1.15 346.18-0.58 344.03 0 341.73 0L341.73 0 330.98 0 330.98-36.15ZM335.83-20.3L341.28-20.3Q344.28-20.3 345.63-21.98 346.98-23.65 346.98-26.05L346.98-26.05Q346.98-28.9 345.23-30.2 343.48-31.5 340.53-31.5L340.53-31.5 335.83-31.5 335.83-20.3ZM335.83-4.5L341.48-4.5Q343.48-4.5 345.15-5.1 346.83-5.7 347.8-6.95 348.78-8.2 348.78-10.1L348.78-10.1Q348.78-12.2 347.65-13.4 346.53-14.6 344.78-15.13 343.03-15.65 341.18-15.65L341.18-15.65 335.83-15.65 335.83-4.5ZM361.87-36.15L371.47-36.15Q374.22-36.15 376.55-35.43 378.87-34.7 380.6-33.27 382.32-31.85 383.3-29.78 384.27-27.7 384.27-24.95L384.27-24.95Q384.27-22.8 383.65-20.75 383.02-18.7 381.57-17.03 380.12-15.35 377.8-14.33 375.47-13.3 372.07-13.3L372.07-13.3 366.72-13.3 366.72 0 361.87 0 361.87-36.15ZM366.72-17.95L371.97-17.95Q374.12-17.95 375.55-18.6 376.97-19.25 377.77-20.28 378.57-21.3 378.92-22.5 379.27-23.7 379.27-24.75L379.27-24.75Q379.27-25.85 378.9-27.03 378.52-28.2 377.7-29.2 376.87-30.2 375.55-30.85 374.22-31.5 372.32-31.5L372.32-31.5 366.72-31.5 366.72-17.95ZM372.17-15.05L377.92-15.2 387.37 0 381.77 0 372.17-15.05ZM394.82 0L394.82-36.15 418.32-36.15 418.32-31.5 399.67-31.5 399.67-20.5 416.32-20.5 416.32-15.85 399.67-15.85 399.67-4.65 419.02-4.65 419.02 0 394.82 0ZM438.67 1.65L424.27-35.95 429.87-35.95 439.67-8.35 438.82-8.7 445.97-27.2 448.22-20.65 438.67 1.65ZM456.37 1.6L441.62-35.95 446.47-35.95 457.07-8.75 456.07-8.95 465.42-35.95 470.57-35.95 456.37 1.6ZM498.37-33.4L496.52-29.7Q494.67-30.65 492.47-31.35 490.27-32.05 488.17-32.05L488.17-32.05Q485.27-32.05 483.54-30.7 481.82-29.35 481.82-27.1L481.82-27.1Q481.82-25.4 482.92-24.23 484.02-23.05 485.82-22.2 487.62-21.35 489.57-20.6L489.57-20.6Q491.27-19.95 492.92-19.15 494.57-18.35 495.89-17.15 497.22-15.95 497.99-14.2 498.77-12.45 498.77-9.85L498.77-9.85Q498.77-7 497.34-4.65 495.92-2.3 493.27-0.95 490.62 0.4 486.97 0.4L486.97 0.4Q484.57 0.4 482.39-0.15 480.22-0.7 478.37-1.58 476.52-2.45 475.07-3.4L475.07-3.4 477.22-7.2Q478.42-6.35 479.97-5.58 481.52-4.8 483.22-4.33 484.92-3.85 486.52-3.85L486.52-3.85Q488.22-3.85 489.89-4.48 491.57-5.1 492.67-6.4 493.77-7.7 493.77-9.85L493.77-9.85Q493.77-11.7 492.79-12.93 491.82-14.15 490.22-15.03 488.62-15.9 486.82-16.6L486.82-16.6Q485.12-17.25 483.37-18.03 481.62-18.8 480.12-19.93 478.62-21.05 477.72-22.7 476.82-24.35 476.82-26.7L476.82-26.7Q476.82-29.55 478.19-31.68 479.57-33.8 481.97-35.02 484.37-36.25 487.47-36.35L487.47-36.35Q490.97-36.35 493.64-35.5 496.32-34.65 498.37-33.4L498.37-33.4Z" opacity="1" transform="matrix(1,0,0,1,0,0)" fill="#000000" class="wordmark-text-0" data-fill-palette-color="quaternary" id="text-0"></path></svg></g></svg></g><g transform="matrix(1,0,0,1,115.1786650396102,20.978049660764114)"><svg viewBox="0 0 97.97977618754692 10.488379913817775" height="10.488379913817775" width="97.97977618754692"><g transform="matrix(1,0,0,1,0,0)"><svg width="97.97977618754692" viewBox="5.25 -37.849998474121094 444.1600036621094 47.54999923706055" height="10.488379913817775" data-palette-color="#ffffff"><path d="M34.1 0L28.65 0 21.1-10.75Q19.7-10.65 18.9-10.65L18.9-10.65 10.25-10.65 10.25 0 5.25 0 5.25-35 18.9-35Q25.7-35 29.6-31.75 33.5-28.5 33.5-22.8L33.5-22.8Q33.5-18.75 31.5-15.9 29.5-13.05 25.8-11.75L25.8-11.75 34.1 0ZM18.75-14.9Q23.5-14.9 26-16.95 28.5-19 28.5-22.8L28.5-22.8Q28.5-26.6 26-28.63 23.5-30.65 18.75-30.65L18.75-30.65 10.25-30.65 10.25-14.9 18.75-14.9ZM64.85-13.1Q64.85-12.55 64.75-11.65L64.75-11.65 43.25-11.65Q43.7-8.15 46.32-6.03 48.95-3.9 52.85-3.9L52.85-3.9Q57.6-3.9 60.5-7.1L60.5-7.1 63.15-4Q61.35-1.9 58.67-0.8 56 0.3 52.7 0.3L52.7 0.3Q48.5 0.3 45.25-1.43 42-3.15 40.22-6.25 38.45-9.35 38.45-13.25L38.45-13.25Q38.45-17.1 40.17-20.2 41.9-23.3 44.92-25.03 47.95-26.75 51.75-26.75L51.75-26.75Q55.55-26.75 58.52-25.03 61.5-23.3 63.17-20.2 64.85-17.1 64.85-13.1L64.85-13.1ZM51.75-22.7Q48.3-22.7 45.97-20.6 43.65-18.5 43.25-15.1L43.25-15.1 60.25-15.1Q59.85-18.45 57.52-20.58 55.2-22.7 51.75-22.7L51.75-22.7ZM80.4-26.75Q85.9-26.75 88.82-24.05 91.75-21.35 91.75-16L91.75-16 91.75 0 87.2 0 87.2-3.5Q86-1.65 83.77-0.68 81.55 0.3 78.5 0.3L78.5 0.3Q74.05 0.3 71.37-1.85 68.7-4 68.7-7.5L68.7-7.5Q68.7-11 71.25-13.13 73.8-15.25 79.35-15.25L79.35-15.25 86.95-15.25 86.95-16.2Q86.95-19.3 85.15-20.95 83.35-22.6 79.85-22.6L79.85-22.6Q77.5-22.6 75.25-21.83 73-21.05 71.45-19.75L71.45-19.75 69.45-23.35Q71.5-25 74.35-25.88 77.2-26.75 80.4-26.75L80.4-26.75ZM79.3-3.4Q82.05-3.4 84.05-4.63 86.05-5.85 86.95-8.1L86.95-8.1 86.95-11.8 79.55-11.8Q73.45-11.8 73.45-7.7L73.45-7.7Q73.45-5.7 75-4.55 76.55-3.4 79.3-3.4L79.3-3.4ZM120.99-37.1L125.79-37.1 125.79 0 121.19 0 121.19-4.2Q119.59-2 117.14-0.85 114.69 0.3 111.74 0.3L111.74 0.3Q107.89 0.3 104.84-1.4 101.79-3.1 100.07-6.18 98.34-9.25 98.34-13.25L98.34-13.25Q98.34-17.25 100.07-20.3 101.79-23.35 104.84-25.05 107.89-26.75 111.74-26.75L111.74-26.75Q114.59-26.75 116.99-25.68 119.39-24.6 120.99-22.5L120.99-22.5 120.99-37.1ZM112.14-3.9Q114.64-3.9 116.69-5.08 118.74-6.25 119.89-8.38 121.04-10.5 121.04-13.25L121.04-13.25Q121.04-16 119.89-18.13 118.74-20.25 116.69-21.4 114.64-22.55 112.14-22.55L112.14-22.55Q109.59-22.55 107.57-21.4 105.54-20.25 104.37-18.13 103.19-16 103.19-13.25L103.19-13.25Q103.19-10.5 104.37-8.38 105.54-6.25 107.57-5.08 109.59-3.9 112.14-3.9L112.14-3.9ZM136.04 0.3Q134.64 0.3 133.64-0.68 132.64-1.65 132.64-3.15L132.64-3.15Q132.64-4.6 133.64-5.58 134.64-6.55 136.04-6.55L136.04-6.55Q137.44-6.55 138.39-5.6 139.34-4.65 139.34-3.15L139.34-3.15Q139.34-1.65 138.37-0.68 137.39 0.3 136.04 0.3L136.04 0.3ZM170.59 0.4Q166.64 0.4 162.96-0.83 159.29-2.05 157.19-4L157.19-4 159.04-7.9Q161.04-6.1 164.16-4.98 167.29-3.85 170.59-3.85L170.59-3.85Q174.94-3.85 177.09-5.33 179.24-6.8 179.24-9.25L179.24-9.25Q179.24-11.05 178.06-12.18 176.89-13.3 175.16-13.9 173.44-14.5 170.29-15.25L170.29-15.25Q166.34-16.2 163.91-17.15 161.49-18.1 159.76-20.08 158.04-22.05 158.04-25.4L158.04-25.4Q158.04-28.2 159.51-30.45 160.99-32.7 163.99-34.05 166.99-35.4 171.44-35.4L171.44-35.4Q174.54-35.4 177.54-34.6 180.54-33.8 182.69-32.3L182.69-32.3 181.04-28.3Q178.84-29.7 176.34-30.43 173.84-31.15 171.44-31.15L171.44-31.15Q167.19-31.15 165.06-29.6 162.94-28.05 162.94-25.6L162.94-25.6Q162.94-23.8 164.14-22.68 165.34-21.55 167.11-20.93 168.89-20.3 171.94-19.6L171.94-19.6Q175.89-18.65 178.29-17.7 180.69-16.75 182.41-14.8 184.14-12.85 184.14-9.55L184.14-9.55Q184.14-6.8 182.64-4.53 181.14-2.25 178.09-0.93 175.04 0.4 170.59 0.4L170.59 0.4ZM190.73 0L190.73-26.5 195.53-26.5 195.53 0 190.73 0ZM193.13-31.6Q191.73-31.6 190.81-32.5 189.88-33.4 189.88-34.7L189.88-34.7Q189.88-36 190.81-36.93 191.73-37.85 193.13-37.85L193.13-37.85Q194.53-37.85 195.46-36.98 196.38-36.1 196.38-34.8L196.38-34.8Q196.38-33.45 195.46-32.52 194.53-31.6 193.13-31.6L193.13-31.6ZM218.73-26.75Q222.58-26.75 225.63-25.05 228.68-23.35 230.41-20.3 232.13-17.25 232.13-13.25L232.13-13.25Q232.13-9.25 230.41-6.18 228.68-3.1 225.63-1.4 222.58 0.3 218.73 0.3L218.73 0.3Q215.88 0.3 213.51-0.8 211.13-1.9 209.48-4L209.48-4 209.48 9.7 204.68 9.7 204.68-26.5 209.28-26.5 209.28-22.3Q210.88-24.5 213.33-25.63 215.78-26.75 218.73-26.75L218.73-26.75ZM218.33-3.9Q220.88-3.9 222.91-5.08 224.93-6.25 226.11-8.38 227.28-10.5 227.28-13.25L227.28-13.25Q227.28-16 226.11-18.13 224.93-20.25 222.91-21.4 220.88-22.55 218.33-22.55L218.33-22.55Q215.83-22.55 213.81-21.38 211.78-20.2 210.61-18.1 209.43-16 209.43-13.25L209.43-13.25Q209.43-10.5 210.58-8.38 211.73-6.25 213.78-5.08 215.83-3.9 218.33-3.9L218.33-3.9ZM239.33 0.3Q237.93 0.3 236.93-0.68 235.93-1.65 235.93-3.15L235.93-3.15Q235.93-4.6 236.93-5.58 237.93-6.55 239.33-6.55L239.33-6.55Q240.73-6.55 241.68-5.6 242.63-4.65 242.63-3.15L242.63-3.15Q242.63-1.65 241.65-0.68 240.68 0.3 239.33 0.3L239.33 0.3ZM292.52 0L287.07 0 279.52-10.75Q278.12-10.65 277.32-10.65L277.32-10.65 268.67-10.65 268.67 0 263.67 0 263.67-35 277.32-35Q284.12-35 288.02-31.75 291.92-28.5 291.92-22.8L291.92-22.8Q291.92-18.75 289.92-15.9 287.92-13.05 284.22-11.75L284.22-11.75 292.52 0ZM277.17-14.9Q281.92-14.9 284.42-16.95 286.92-19 286.92-22.8L286.92-22.8Q286.92-26.6 284.42-28.63 281.92-30.65 277.17-30.65L277.17-30.65 268.67-30.65 268.67-14.9 277.17-14.9ZM323.27-13.1Q323.27-12.55 323.17-11.65L323.17-11.65 301.67-11.65Q302.12-8.15 304.75-6.03 307.37-3.9 311.27-3.9L311.27-3.9Q316.02-3.9 318.92-7.1L318.92-7.1 321.57-4Q319.77-1.9 317.1-0.8 314.42 0.3 311.12 0.3L311.12 0.3Q306.92 0.3 303.67-1.43 300.42-3.15 298.65-6.25 296.87-9.35 296.87-13.25L296.87-13.25Q296.87-17.1 298.6-20.2 300.32-23.3 303.35-25.03 306.37-26.75 310.17-26.75L310.17-26.75Q313.97-26.75 316.95-25.03 319.92-23.3 321.6-20.2 323.27-17.1 323.27-13.1L323.27-13.1ZM310.17-22.7Q306.72-22.7 304.4-20.6 302.07-18.5 301.67-15.1L301.67-15.1 318.67-15.1Q318.27-18.45 315.95-20.58 313.62-22.7 310.17-22.7L310.17-22.7ZM343.97-26.75Q347.82-26.75 350.87-25.05 353.92-23.35 355.64-20.3 357.37-17.25 357.37-13.25L357.37-13.25Q357.37-9.25 355.64-6.18 353.92-3.1 350.87-1.4 347.82 0.3 343.97 0.3L343.97 0.3Q341.12 0.3 338.74-0.8 336.37-1.9 334.72-4L334.72-4 334.72 9.7 329.92 9.7 329.92-26.5 334.52-26.5 334.52-22.3Q336.12-24.5 338.57-25.63 341.02-26.75 343.97-26.75L343.97-26.75ZM343.57-3.9Q346.12-3.9 348.14-5.08 350.17-6.25 351.34-8.38 352.52-10.5 352.52-13.25L352.52-13.25Q352.52-16 351.34-18.13 350.17-20.25 348.14-21.4 346.12-22.55 343.57-22.55L343.57-22.55Q341.07-22.55 339.04-21.38 337.02-20.2 335.84-18.1 334.67-16 334.67-13.25L334.67-13.25Q334.67-10.5 335.82-8.38 336.97-6.25 339.02-5.08 341.07-3.9 343.57-3.9L343.57-3.9ZM387.97-13.1Q387.97-12.55 387.87-11.65L387.87-11.65 366.37-11.65Q366.82-8.15 369.44-6.03 372.07-3.9 375.97-3.9L375.97-3.9Q380.72-3.9 383.62-7.1L383.62-7.1 386.27-4Q384.47-1.9 381.79-0.8 379.12 0.3 375.82 0.3L375.82 0.3Q371.62 0.3 368.37-1.43 365.12-3.15 363.34-6.25 361.57-9.35 361.57-13.25L361.57-13.25Q361.57-17.1 363.29-20.2 365.02-23.3 368.04-25.03 371.07-26.75 374.87-26.75L374.87-26.75Q378.67-26.75 381.64-25.03 384.62-23.3 386.29-20.2 387.97-17.1 387.97-13.1L387.97-13.1ZM374.87-22.7Q371.42-22.7 369.09-20.6 366.77-18.5 366.37-15.1L366.37-15.1 383.37-15.1Q382.97-18.45 380.64-20.58 378.32-22.7 374.87-22.7L374.87-22.7ZM403.51-26.75Q409.01-26.75 411.94-24.05 414.86-21.35 414.86-16L414.86-16 414.86 0 410.31 0 410.31-3.5Q409.11-1.65 406.89-0.68 404.66 0.3 401.61 0.3L401.61 0.3Q397.16 0.3 394.49-1.85 391.81-4 391.81-7.5L391.81-7.5Q391.81-11 394.36-13.13 396.91-15.25 402.46-15.25L402.46-15.25 410.06-15.25 410.06-16.2Q410.06-19.3 408.26-20.95 406.46-22.6 402.96-22.6L402.96-22.6Q400.61-22.6 398.36-21.83 396.11-21.05 394.56-19.75L394.56-19.75 392.56-23.35Q394.61-25 397.46-25.88 400.31-26.75 403.51-26.75L403.51-26.75ZM402.41-3.4Q405.16-3.4 407.16-4.63 409.16-5.85 410.06-8.1L410.06-8.1 410.06-11.8 402.66-11.8Q396.56-11.8 396.56-7.7L396.56-7.7Q396.56-5.7 398.11-4.55 399.66-3.4 402.41-3.4L402.41-3.4ZM437.16-5L438.66-1.55Q437.61-0.65 436.06-0.18 434.51 0.3 432.86 0.3L432.86 0.3Q428.86 0.3 426.66-1.85 424.46-4 424.46-8L424.46-8 424.46-22.55 419.96-22.55 419.96-26.5 424.46-26.5 424.46-32.3 429.26-32.3 429.26-26.5 436.86-26.5 436.86-22.55 429.26-22.55 429.26-8.2Q429.26-6.05 430.34-4.9 431.41-3.75 433.41-3.75L433.41-3.75Q435.61-3.75 437.16-5L437.16-5ZM446.11 0.3Q444.71 0.3 443.71-0.68 442.71-1.65 442.71-3.15L442.71-3.15Q442.71-4.6 443.71-5.58 444.71-6.55 446.11-6.55L446.11-6.55Q447.51-6.55 448.46-5.6 449.41-4.65 449.41-3.15L449.41-3.15Q449.41-1.65 448.43-0.68 447.46 0.3 446.11 0.3L446.11 0.3Z" opacity="1" transform="matrix(1,0,0,1,0,0)" fill="#000000" class="slogan-text-1" data-fill-palette-color="quaternary" id="text-1"></path></svg></g></svg></g></svg></g></svg></g><g transform="matrix(1,0,0,1,223.1748440448531,0)"><svg viewBox="0 0 227.69108440167454 227.69108440167454" height="227.69108440167454" width="227.69108440167454"><g><svg viewBox="0 0 227.69108440167454 227.69108440167454" height="227.69108440167454" width="227.69108440167454"><g transform="matrix(1,0,0,1,60.17823893545641,65.6344065784562)"><svg viewBox="0 0 107.33460653076172 96.42227124476216" height="96.42227124476216" width="107.33460653076172"><g><svg xmlns="http://www.w3.org/2000/svg" xmlns:xlink="http://www.w3.org/1999/xlink" version="1.1" x="0" y="0" viewBox="5 9.575000762939453 90 80.85001373291016" enable-background="new 0 0 100 100" xml:space="preserve" height="96.42227124476216" width="107.33460653076172" class="icon-s-0" data-fill-palette-color="quaternary" id="s-0"><g fill="#ffffff" data-fill-palette-color="quaternary"><path d="M94.064 54.629c-0.794-0.643-2.508-1.236-3.717-1.467-2.465-0.475-7.127-0.982-12.821-0.982-6.137 0-12.29 0.565-18.288 1.678-2.626 0.484-5.314 0.73-7.99 0.73-3.613 0-6.438-0.434-8.498-0.812l-0.271-0.049c-0.628-0.117-1.251-0.193-1.867-0.004-0.405 0.127-0.765 0.354-1.065 0.644v-0.56c0-0.63-0.602-1.16-1.312-1.16-0.023 0-2.392 0.16-2.392 1.16v1.143h-1.96v-0.167-3.485c0-1.021-0.832-1.855-1.854-1.855H6.852C5.831 49.441 5 50.275 5 51.297v3.285 0.588 4.769c0 1.004 4.061 6.245 5.149 6.245h0.607c-0.004 0.124-0.001 0.25 0.007 0.375 0.005 0.103 0.012 0.213 0.012 0.327 0 0.876 0.712 1.589 1.587 1.589h3.533c-0.151 0.264-0.244 0.564-0.244 0.889v2.538h2.727v-0.456c0-0.589 0.478-1.068 1.063-1.068 0.585 0 1.062 0.479 1.062 1.068v0.456h2.728v-2.538c0-0.324-0.094-0.625-0.244-0.889h3.539c0.876 0 1.589-0.713 1.589-1.589 0-0.103 0.005-0.2 0.008-0.294 0.007-0.137 0.008-0.273-0.001-0.408h0.61c0.575 0 1.977-1.462 3.174-2.99h3.936v1.139c0 1.005 2.368 1.166 2.392 1.166 0.711 0 1.312-0.533 1.312-1.166v-0.559c0.301 0.289 0.66 0.516 1.065 0.643 0.616 0.192 1.251 0.115 1.886-0.006l0.257-0.048c2.054-0.378 4.874-0.81 8.481-0.81 2.681 0 5.373 0.246 8.002 0.734 6.003 1.11 12.157 1.674 18.297 1.674 0.001 0 0.002 0 0.002 0 5.694 0 10.351-0.506 12.812-0.98 1.25-0.242 2.929-0.826 3.719-1.471C94.904 62.827 95 62.104 95 61.619v-5.094C95 56.037 94.904 55.312 94.064 54.629zM6.852 50.355h25.176c0.521 0 0.94 0.422 0.94 0.941v0.189H5.914v-0.189C5.914 50.777 6.334 50.355 6.852 50.355zM14.084 65.277h-0.368c-0.708-0.247-4.152-4.549-4.29-5.339V52.4h0.743v6.914c0 0.721 2.65 4.264 4.436 5.96L14.084 65.277zM5.914 59.938V55.17v-0.588V52.4h2.598v7.538c0 0.742 2.217 3.794 3.813 5.339l-2.118 0.001C9.503 65.039 6.052 60.729 5.914 59.938zM22.317 69.363v1.625h-0.953c-0.206-0.873-0.991-1.524-1.923-1.524-0.933 0-1.718 0.651-1.924 1.524h-0.953v-1.625c0-0.49 0.399-0.889 0.889-0.889h3.976C21.919 68.475 22.317 68.873 22.317 69.363zM27.212 66.552c-0.005 0.106-0.011 0.218-0.011 0.334 0 0.372-0.303 0.675-0.675 0.675h-5.098-3.976-5.091c-0.371 0-0.673-0.303-0.673-0.675 0-0.134-0.008-0.263-0.016-0.384-0.008-0.125-0.019-0.292-0.002-0.292 0 0 0 0 0.002 0.001l7.422-0.027h8.111C27.223 66.258 27.218 66.421 27.212 66.552zM28.732 65.271l-11.234 0.005v-0.005l-0.812 0.005H16.01c-0.758-0.289-4.752-5.143-4.927-5.961V52.4h21.885v2.996h0.001l0.002 4.52C32.83 60.729 29.379 65.039 28.732 65.271zM32.593 62.28c0.743-1.038 1.289-1.975 1.289-2.342v-4.075h1.96v6.417H32.593zM38.633 64.332c0 0.1-0.18 0.252-0.399 0.252-0.354 0-1.215-0.211-1.478-0.374V53.933c0.266-0.163 1.124-0.373 1.478-0.373 0.22 0 0.399 0.149 0.399 0.247v2.719 1.047 3.324 0.723V64.332zM90.176 64.086c-2.42 0.465-7.009 0.963-12.64 0.963 0 0-0.001 0-0.002 0-6.083 0-12.183-0.559-18.13-1.66-2.684-0.496-5.433-0.749-8.169-0.749-3.681 0-6.554 0.44-8.645 0.825l-0.266 0.05c-0.556 0.104-0.995 0.171-1.442 0.03-0.788-0.246-1.337-1.039-1.337-1.926v-0.723-3.324-1.047c0-0.891 0.549-1.686 1.335-1.93 0.444-0.135 0.881-0.072 1.43 0.027l0.278 0.051c2.096 0.385 4.973 0.826 8.659 0.826 2.732 0 5.476-0.25 8.156-0.746 5.944-1.102 12.041-1.662 18.122-1.662 5.63 0 10.226 0.5 12.649 0.967 0.459 0.088 1.002 0.236 1.527 0.417v9.191C91.184 63.845 90.644 63.994 90.176 64.086zM94.088 61.619c0 0.417-0.103 0.778-0.599 1.184-0.209 0.17-0.519 0.341-0.873 0.503v-8.469c0.354 0.161 0.665 0.332 0.873 0.501 0.496 0.404 0.599 0.766 0.599 1.188V61.619z" fill="#000000" data-fill-palette-color="quaternary"></path><path d="M6.363 43.051h26.152c0.252 0 0.457-0.205 0.457-0.457v-5.281c0-0.139-0.066-0.259-0.164-0.343l0.002-0.005-0.043-0.022c-0.035-0.024-0.072-0.045-0.114-0.058l-6.38-3.265c-2.466-3.681-1.553-6.694-0.58-9.882 0.541-1.777 1.102-3.614 1.123-5.65l-0.457-0.004v0h0.457v-4.536c0-2.338-3.032-3.973-7.375-3.973-4.344 0-7.375 1.634-7.375 3.973v4.536h0.456v0l-0.456 0.004c0.021 2.036 0.581 3.873 1.122 5.65 0.973 3.188 1.887 6.202-0.58 9.883l-6.381 3.263c-0.043 0.014-0.081 0.035-0.118 0.06l-0.04 0.021 0.003 0.005c-0.099 0.084-0.165 0.205-0.165 0.344v5.281C5.907 42.846 6.112 43.051 6.363 43.051zM13.035 34.428h12.811l4.747 2.428H8.286L13.035 34.428zM10.593 37.771v4.367H9.847v-4.367H10.593zM6.82 37.771h2.112v4.367H6.82V37.771zM32.06 42.138H11.507v-4.367H32.06V42.138zM12.979 14.006h12.923v3.621H12.979V14.006zM19.441 10.488c3.355 0 5.95 1.092 6.389 2.604H13.052C13.49 11.58 16.085 10.488 19.441 10.488zM14.062 23.471c-0.481-1.574-0.957-3.202-1.049-4.931h12.854c-0.092 1.729-0.567 3.357-1.049 4.931-0.706 2.319-1.423 4.695-0.801 7.33h-9.155C15.485 28.166 14.769 25.79 14.062 23.471zM14.594 31.714h9.694c0.206 0.586 0.478 1.185 0.839 1.8H13.755C14.116 32.899 14.388 32.301 14.594 31.714z" fill="#000000" data-fill-palette-color="quaternary"></path><path d="M21.304 85.292c-0.138-0.319-0.268-0.651-0.384-0.987-0.384-1.094-0.774-2.281-1.032-3.53l-0.447-2.181-0.446 2.181c-0.261 1.273-0.665 2.499-1.024 3.526-0.124 0.34-0.256 0.678-0.382 0.993-0.277 0.651-0.56 1.347-0.696 2.071-0.146 0.864 0.216 1.852 0.898 2.453 0.447 0.402 0.996 0.607 1.633 0.607h0.036c0.649 0 1.205-0.203 1.653-0.602 0.678-0.602 1.021-1.564 0.873-2.459C21.868 86.678 21.604 86.031 21.304 85.292zM20.507 89.144c-0.282 0.249-0.624 0.369-1.048 0.369h-0.036c-0.409 0-0.744-0.121-1.025-0.375-0.444-0.392-0.698-1.072-0.606-1.61 0.117-0.628 0.379-1.271 0.641-1.885 0.134-0.334 0.27-0.682 0.397-1.035 0.201-0.574 0.416-1.209 0.613-1.882 0.193 0.653 0.406 1.28 0.617 1.88 0.121 0.354 0.26 0.709 0.422 1.087 0.259 0.637 0.504 1.237 0.604 1.825C21.181 88.097 20.948 88.751 20.507 89.144z" fill="#000000" data-fill-palette-color="quaternary"></path></g></svg></g></svg></g><g><path d="M2.137 84.087l1.384-4.297c0.54-1.676 1.307-2.888 2.302-3.635 0.993-0.741 2.213-0.879 3.661-0.412v0c0.879 0.283 1.577 0.728 2.094 1.334 0.521 0.615 0.85 1.338 0.986 2.171 0.137 0.833 0.073 1.744-0.19 2.734v0l-1.261-0.05c0.394-1.115 0.918-2.06 1.573-2.833 0.66-0.771 1.404-1.314 2.23-1.627 0.833-0.311 1.705-0.32 2.616-0.027v0c0.828 0.267 1.49 0.651 1.984 1.153 0.497 0.495 0.847 1.065 1.051 1.71 0.21 0.647 0.297 1.331 0.261 2.052-0.035 0.715-0.166 1.426-0.395 2.135v0l-1.601 4.97zM10.172 84.204l0.812-2.523c0.297-0.923 0.257-1.676-0.12-2.258-0.386-0.578-0.949-0.986-1.689-1.225v0c-0.873-0.281-1.598-0.218-2.176 0.189-0.572 0.409-1.004 1.069-1.297 1.98v0l-0.7 2.172zM17.476 86.557l0.843-2.618c0.198-0.613 0.287-1.206 0.269-1.777-0.023-0.58-0.175-1.082-0.456-1.508-0.29-0.421-0.729-0.727-1.318-0.916v0c-0.645-0.208-1.21-0.198-1.695 0.029-0.479 0.23-0.887 0.587-1.225 1.072-0.331 0.487-0.589 1.014-0.771 1.583v0l-0.798 2.476z" fill="#000000" data-fill-palette-color="quaternary"></path><path d="M16.449 71.088v0c-1.062-0.593-1.948-1.35-2.658-2.271-0.716-0.925-1.238-1.954-1.564-3.087-0.324-1.124-0.432-2.273-0.326-3.446 0.107-1.173 0.463-2.302 1.069-3.387v0c0.599-1.073 1.37-1.963 2.312-2.67 0.942-0.707 1.978-1.22 3.108-1.541 1.139-0.323 2.292-0.425 3.458-0.307 1.164 0.109 2.277 0.46 3.339 1.053v0c1.091 0.609 1.994 1.383 2.709 2.323 0.719 0.934 1.231 1.965 1.537 3.095 0.309 1.123 0.401 2.267 0.277 3.43-0.124 1.163-0.486 2.282-1.084 3.354v0c-0.605 1.085-1.368 1.987-2.287 2.707-0.919 0.72-1.933 1.242-3.043 1.566-1.107 0.333-2.245 0.436-3.413 0.309-1.175-0.131-2.319-0.507-3.434-1.128zM17.647 68.983v0c0.806 0.45 1.643 0.723 2.51 0.819 0.861 0.093 1.707 0.028 2.539-0.193 0.828-0.23 1.589-0.605 2.282-1.123 0.687-0.522 1.256-1.186 1.705-1.993v0c0.44-0.789 0.704-1.616 0.791-2.48 0.078-0.862-0.008-1.697-0.257-2.506-0.258-0.806-0.652-1.551-1.183-2.235-0.537-0.688-1.214-1.26-2.032-1.716v0c-0.806-0.45-1.649-0.726-2.528-0.829-0.879-0.102-1.731-0.041-2.556 0.183-0.831 0.221-1.59 0.593-2.277 1.114-0.69 0.528-1.256 1.186-1.696 1.976v0c-0.45 0.806-0.714 1.641-0.791 2.502-0.072 0.865 0.013 1.708 0.255 2.528 0.248 0.823 0.65 1.576 1.205 2.259 0.555 0.683 1.233 1.247 2.033 1.694z" fill="#000000" data-fill-palette-color="quaternary"></path><path d="M28.832 50.861v0c-0.907-0.81-1.607-1.742-2.099-2.796-0.497-1.059-0.782-2.177-0.853-3.354-0.071-1.168 0.074-2.312 0.434-3.434 0.36-1.121 0.954-2.146 1.782-3.072v0c0.819-0.917 1.765-1.617 2.839-2.101 1.074-0.484 2.197-0.759 3.369-0.826 1.182-0.067 2.329 0.085 3.442 0.455 1.112 0.361 2.122 0.946 3.028 1.756v0c0.932 0.832 1.644 1.785 2.138 2.858 0.498 1.068 0.773 2.187 0.825 3.355 0.056 1.164-0.103 2.3-0.478 3.408-0.375 1.108-0.972 2.121-1.791 3.037v0c-0.828 0.927-1.768 1.641-2.822 2.143-1.054 0.502-2.158 0.79-3.311 0.865-1.153 0.084-2.286-0.064-3.398-0.443-1.118-0.384-2.153-1.001-3.105-1.851zM30.46 49.068v0c0.689 0.615 1.446 1.064 2.271 1.347 0.82 0.278 1.66 0.4 2.52 0.366 0.859-0.044 1.683-0.243 2.472-0.599 0.784-0.36 1.484-0.884 2.099-1.572v0c0.602-0.674 1.039-1.423 1.313-2.248 0.264-0.824 0.363-1.658 0.296-2.501-0.076-0.843-0.298-1.656-0.667-2.44-0.374-0.788-0.91-1.494-1.609-2.119v0c-0.689-0.615-1.451-1.069-2.286-1.36-0.835-0.292-1.68-0.418-2.535-0.379-0.859 0.034-1.681 0.231-2.465 0.591-0.789 0.365-1.484 0.884-2.086 1.558v0c-0.615 0.689-1.055 1.445-1.318 2.27-0.259 0.829-0.36 1.67-0.303 2.522 0.063 0.858 0.29 1.68 0.683 2.467 0.393 0.787 0.931 1.486 1.615 2.097z" fill="#000000" data-fill-palette-color="quaternary"></path><path d="M42.748 24.744l4.236 5.643 0.471 0.743-0.017-0.536 1.248-10.308 2.423-1.818-1.291 10.365 12.155 3.411-2.391 1.795-10.24-2.968-0.318 2.034 4.254 5.666-1.905 1.43-10.53-14.027z" fill="#000000" data-fill-palette-color="quaternary"></path><path d="M67.536 11.252l0.021 2.005c-0.675-0.005-1.38 0.054-2.115 0.178-0.742 0.127-1.414 0.344-2.017 0.654v0c-0.834 0.428-1.399 0.964-1.695 1.608-0.296 0.645-0.279 1.29 0.051 1.934v0c0.252 0.491 0.624 0.823 1.116 0.996 0.489 0.182 1.056 0.261 1.7 0.237 0.639-0.021 1.295-0.067 1.969-0.137v0c0.588-0.063 1.179-0.104 1.772-0.125 0.591-0.012 1.165 0.059 1.723 0.214 0.56 0.146 1.083 0.415 1.569 0.808 0.476 0.39 0.906 0.958 1.287 1.703v0c0.422 0.822 0.603 1.677 0.544 2.566-0.062 0.883-0.375 1.715-0.937 2.497-0.565 0.775-1.374 1.433-2.427 1.973v0c-0.692 0.355-1.39 0.616-2.095 0.784-0.709 0.162-1.394 0.252-2.057 0.271-0.659 0.025-1.27 0.006-1.832-0.057v0l0.089-2.118c0.47 0.072 0.988 0.106 1.552 0.099 0.556-0.009 1.114-0.071 1.674-0.186 0.563-0.11 1.076-0.283 1.537-0.52v0c0.491-0.252 0.928-0.592 1.313-1.021 0.394-0.426 0.65-0.909 0.77-1.447 0.128-0.536 0.033-1.115-0.285-1.735v0c-0.273-0.532-0.641-0.9-1.104-1.103-0.46-0.212-0.985-0.327-1.577-0.345-0.588-0.012-1.194 0.015-1.817 0.081v0c-0.582 0.059-1.184 0.107-1.809 0.143-0.615 0.039-1.221 0.007-1.819-0.097-0.598-0.104-1.149-0.325-1.652-0.665-0.5-0.348-0.923-0.86-1.268-1.533v0c-0.422-0.822-0.593-1.637-0.515-2.446 0.081-0.818 0.376-1.582 0.885-2.291 0.513-0.704 1.208-1.299 2.086-1.787v0c1.011-0.519 1.963-0.854 2.855-1.006 0.896-0.146 1.732-0.19 2.508-0.132z" fill="#000000" data-fill-palette-color="quaternary"></path><path d="M89.528 20.955l-2.255 0.467 3.798-19.443 0.146-0.03 11.192 16.336-2.635 0.546-8.57-13.113 1.417-1.414zM90.065 16.131l0.251-2.128 6.392-1.325 1.173 1.833z" fill="#000000" data-fill-palette-color="quaternary"></path><path d="M122.223 18.305l-0.08 0.002-13.857-13.467 0.691 0.164 0.321 13.022-2.352 0.051-0.39-18.074 0.12-0.003 13.719 13.51-0.561-0.107-0.333-13.141 2.331-0.051z" fill="#000000" data-fill-palette-color="quaternary"></path><path d="M133.818 19.866l-5.53-1.059 3.298-17.227 4.698 0.9c1.697 0.325 3.095 0.863 4.196 1.615 1.101 0.752 1.934 1.628 2.5 2.629 0.567 0.995 0.921 2.047 1.06 3.156 0.147 1.104 0.122 2.174-0.077 3.212v0c-0.249 1.299-0.7 2.42-1.354 3.363-0.649 0.951-1.441 1.716-2.378 2.295-0.936 0.578-1.953 0.962-3.051 1.151-1.099 0.195-2.22 0.184-3.362-0.035zM133.472 4.235l-2.451 12.802 2.77 0.531c0.953 0.182 1.858 0.207 2.716 0.073 0.858-0.133 1.635-0.414 2.332-0.842 0.698-0.428 1.291-1.001 1.78-1.719 0.484-0.726 0.821-1.588 1.013-2.586v0c0.204-1.064 0.206-2.031 0.007-2.901-0.192-0.869-0.54-1.632-1.043-2.29-0.497-0.657-1.1-1.195-1.811-1.615-0.71-0.427-1.486-0.721-2.328-0.882v0z" fill="#000000" data-fill-palette-color="quaternary"></path><path d="M163.732 11.259l4.038 2.02c1.575 0.788 2.656 1.73 3.244 2.827 0.582 1.094 0.533 2.321-0.148 3.681v0c-0.413 0.826-0.959 1.448-1.636 1.867-0.686 0.422-1.452 0.637-2.296 0.646-0.844 0.009-1.735-0.192-2.674-0.603v0l0.241-1.238c1.043 0.559 1.897 1.22 2.563 1.983 0.662 0.77 1.086 1.587 1.269 2.452 0.181 0.871 0.058 1.734-0.37 2.589v0c-0.389 0.778-0.869 1.374-1.44 1.787-0.565 0.416-1.181 0.676-1.85 0.78-0.672 0.11-1.361 0.092-2.068-0.054-0.701-0.143-1.385-0.381-2.05-0.714v0l-4.67-2.336zM162.398 19.183l2.371 1.186c0.868 0.434 1.618 0.508 2.251 0.224 0.63-0.294 1.119-0.789 1.466-1.484v0c0.41-0.82 0.458-1.546 0.143-2.179-0.318-0.627-0.904-1.155-1.76-1.583v0l-2.041-1.021zM158.965 26.046l2.46 1.231c0.576 0.288 1.148 0.467 1.715 0.535 0.576 0.066 1.096-0.009 1.56-0.222 0.461-0.223 0.829-0.61 1.106-1.163v0c0.303-0.606 0.379-1.166 0.228-1.681-0.154-0.508-0.445-0.966-0.874-1.373-0.431-0.401-0.913-0.736-1.448-1.003v0l-2.326-1.163z" fill="#000000" data-fill-palette-color="quaternary"></path><path d="M180.434 20.857l3.757 2.765c0.717 0.528 1.309 1.108 1.775 1.74 0.467 0.632 0.787 1.301 0.961 2.006 0.178 0.7 0.196 1.415 0.056 2.145-0.146 0.726-0.483 1.447-1.011 2.163v0c-0.413 0.562-0.897 1.051-1.452 1.469-0.556 0.408-1.182 0.693-1.88 0.856-0.703 0.159-1.453 0.147-2.251-0.035-0.807-0.181-1.652-0.597-2.534-1.247v0l-2.095-1.542-3.828 5.201-1.894-1.394zM177.095 29.363l2.055 1.512c0.562 0.413 1.09 0.67 1.585 0.771 0.497 0.11 0.945 0.106 1.346-0.012 0.406-0.114 0.77-0.295 1.093-0.544 0.325-0.239 0.588-0.496 0.788-0.769v0c0.213-0.289 0.38-0.623 0.503-1.003 0.128-0.376 0.182-0.774 0.161-1.193-0.021-0.42-0.144-0.841-0.37-1.263-0.216-0.423-0.574-0.818-1.071-1.184v0l-2.192-1.613zM178.397 32.066l2.289 1.598-0.679 8.657-2.191-1.613z" fill="#000000" data-fill-palette-color="quaternary"></path><path d="M183.415 45.896l12.651-12.148 7.904 8.231-1.625 1.56-6.274-6.535-3.853 3.7 5.598 5.83-1.625 1.56-5.598-5.83-3.925 3.769 6.509 6.779-1.624 1.56z" fill="#000000" data-fill-palette-color="quaternary"></path><path d="M196.472 63.769l12.037-15.391 1.403 2.331-9.029 10.977-0.07-0.446 9.487-1.647-2.164 2.57zM200.917 71.121l11.932-15.526 1.213 2.015-8.666 11.213-0.166-0.47 13.572-2.86 1.285 2.135z" fill="#000000" data-fill-palette-color="quaternary"></path><path d="M225.279 85.027l-1.99-0.249c0.096-0.668 0.132-1.374 0.109-2.12-0.026-0.752-0.151-1.447-0.377-2.087v0c-0.312-0.883-0.767-1.516-1.366-1.896-0.599-0.381-1.24-0.45-1.923-0.209v0c-0.52 0.183-0.899 0.507-1.137 0.971-0.246 0.46-0.401 1.011-0.463 1.653-0.065 0.636-0.108 1.292-0.13 1.969v0c-0.017 0.591-0.055 1.182-0.114 1.774-0.068 0.587-0.216 1.147-0.444 1.678-0.22 0.535-0.557 1.017-1.012 1.445-0.451 0.42-1.071 0.769-1.861 1.047v0c-0.871 0.307-1.743 0.371-2.616 0.193-0.867-0.18-1.649-0.602-2.348-1.264-0.692-0.665-1.235-1.555-1.628-2.67v0c-0.258-0.733-0.423-1.46-0.495-2.182-0.065-0.724-0.062-1.415 0.009-2.074 0.064-0.657 0.165-1.259 0.303-1.809v0l2.086 0.374c-0.135 0.456-0.238 0.964-0.307 1.525-0.066 0.552-0.08 1.113-0.041 1.684 0.033 0.573 0.136 1.104 0.308 1.592v0c0.183 0.52 0.462 1 0.835 1.439 0.369 0.448 0.813 0.767 1.331 0.957 0.514 0.199 1.1 0.183 1.758-0.049v0c0.564-0.199 0.978-0.514 1.241-0.945 0.272-0.427 0.457-0.932 0.554-1.516 0.091-0.582 0.146-1.186 0.164-1.812v0c0.019-0.585 0.053-1.188 0.101-1.811 0.044-0.614 0.158-1.211 0.342-1.79 0.183-0.579 0.477-1.095 0.881-1.547 0.413-0.448 0.976-0.798 1.69-1.05v0c0.871-0.307 1.702-0.368 2.493-0.182 0.8 0.19 1.517 0.585 2.151 1.186 0.628 0.603 1.125 1.372 1.49 2.307v0c0.378 1.071 0.582 2.06 0.612 2.965 0.024 0.907-0.045 1.742-0.206 2.503z" fill="#000000" data-fill-palette-color="quaternary"></path><path d="M25.966 143.074l1.384 4.297c0.54 1.676 0.624 3.108 0.253 4.295-0.373 1.181-1.284 2.005-2.733 2.472v0c-0.879 0.283-1.705 0.329-2.478 0.139-0.782-0.195-1.471-0.591-2.068-1.187-0.597-0.596-1.078-1.373-1.442-2.331v0l1.053-0.696c0.331 1.136 0.457 2.209 0.377 3.219-0.086 1.012-0.373 1.886-0.861 2.623-0.495 0.739-1.198 1.255-2.109 1.548v0c-0.828 0.267-1.59 0.341-2.284 0.223-0.692-0.112-1.309-0.37-1.851-0.775-0.549-0.403-1.018-0.907-1.41-1.515-0.389-0.601-0.698-1.255-0.925-1.963v0l-1.602-4.971zM19.373 147.669l0.813 2.523c0.297 0.923 0.769 1.511 1.416 1.763 0.651 0.244 1.346 0.247 2.086 0.009v0c0.873-0.281 1.425-0.756 1.657-1.424 0.225-0.666 0.191-1.454-0.102-2.365v0l-0.7-2.172zM12.069 150.022l0.843 2.618c0.198 0.613 0.471 1.147 0.819 1.6 0.357 0.457 0.774 0.777 1.251 0.958 0.482 0.173 1.016 0.165 1.605-0.025v0c0.645-0.208 1.098-0.546 1.359-1.014 0.255-0.466 0.378-0.994 0.369-1.585-0.015-0.588-0.114-1.167-0.298-1.736v0l-0.797-2.476z" fill="#000000" data-fill-palette-color="quaternary"></path><path d="M22.976 160.107v0c1.062-0.593 2.171-0.949 3.329-1.071 1.163-0.124 2.313-0.028 3.449 0.29 1.127 0.315 2.161 0.825 3.103 1.532 0.942 0.707 1.716 1.603 2.322 2.688v0c0.599 1.073 0.952 2.196 1.058 3.369 0.107 1.173 0 2.324-0.32 3.454-0.323 1.139-0.841 2.174-1.555 3.105-0.704 0.933-1.587 1.696-2.648 2.288v0c-1.091 0.609-2.224 0.971-3.4 1.087-1.172 0.122-2.319 0.016-3.441-0.316-1.118-0.327-2.14-0.849-3.064-1.566-0.925-0.716-1.687-1.611-2.286-2.684v0c-0.605-1.085-0.973-2.207-1.103-3.368-0.13-1.16-0.042-2.297 0.264-3.411 0.297-1.117 0.807-2.139 1.529-3.068 0.728-0.931 1.649-1.708 2.763-2.329zM24.139 162.231v0c-0.806 0.45-1.478 1.019-2.015 1.707-0.531 0.684-0.921 1.438-1.169 2.261-0.239 0.826-0.32 1.67-0.242 2.532 0.084 0.859 0.35 1.691 0.801 2.498v0c0.44 0.789 1.006 1.447 1.696 1.975 0.693 0.519 1.449 0.885 2.267 1.097 0.821 0.204 1.663 0.259 2.524 0.167 0.867-0.096 1.71-0.372 2.528-0.829v0c0.806-0.45 1.484-1.022 2.032-1.716 0.548-0.694 0.944-1.451 1.186-2.271 0.248-0.823 0.33-1.664 0.247-2.524-0.087-0.865-0.35-1.691-0.791-2.48v0c-0.45-0.806-1.021-1.469-1.714-1.988-0.699-0.516-1.46-0.885-2.286-1.109-0.831-0.221-1.683-0.275-2.554-0.161-0.872 0.114-1.709 0.394-2.51 0.841z" fill="#000000" data-fill-palette-color="quaternary"></path><path d="M34.407 178.997v0c0.907-0.81 1.912-1.4 3.015-1.77 1.108-0.375 2.251-0.532 3.429-0.47 1.168 0.061 2.289 0.334 3.363 0.818 1.074 0.484 2.024 1.19 2.852 2.116v0c0.819 0.917 1.408 1.936 1.768 3.058 0.36 1.121 0.507 2.268 0.441 3.441-0.067 1.182-0.347 2.305-0.84 3.368-0.484 1.064-1.179 2.001-2.086 2.812v0c-0.932 0.832-1.958 1.433-3.08 1.802-1.118 0.374-2.26 0.522-3.427 0.442-1.163-0.075-2.273-0.361-3.332-0.859-1.059-0.497-1.998-1.205-2.817-2.122v0c-0.828-0.927-1.431-1.942-1.811-3.045-0.38-1.104-0.542-2.233-0.486-3.387 0.046-1.155 0.321-2.264 0.823-3.328 0.507-1.068 1.237-2.026 2.188-2.876zM36.006 180.817v0c-0.689 0.615-1.22 1.317-1.595 2.105-0.369 0.784-0.585 1.604-0.647 2.462-0.053 0.858 0.052 1.699 0.316 2.523 0.269 0.82 0.711 1.574 1.326 2.263v0c0.602 0.674 1.297 1.193 2.086 1.558 0.789 0.355 1.607 0.547 2.452 0.576 0.846 0.02 1.679-0.11 2.5-0.388 0.825-0.283 1.587-0.736 2.286-1.36v0c0.689-0.615 1.225-1.321 1.609-2.118 0.384-0.797 0.605-1.622 0.662-2.476 0.063-0.858-0.041-1.696-0.31-2.516-0.273-0.825-0.711-1.574-1.312-2.248v0c-0.615-0.689-1.317-1.211-2.107-1.566-0.794-0.351-1.618-0.546-2.473-0.584-0.859-0.034-1.702 0.099-2.528 0.4-0.826 0.302-1.582 0.758-2.265 1.369z" fill="#000000" data-fill-palette-color="quaternary"></path><path d="M57.777 190.072l-4.236 5.643-0.582 0.66 0.51-0.166 10.246-1.679 2.423 1.818-10.313 1.654 0.118 12.625-2.391-1.795-0.01-10.661-2.041 0.262-4.254 5.667-1.905-1.43 10.53-14.028z" fill="#000000" data-fill-palette-color="quaternary"></path><path d="M77.743 203.687l-1.616 1.187c-0.39-0.551-0.849-1.089-1.379-1.614-0.535-0.528-1.105-0.947-1.707-1.257v0c-0.834-0.428-1.599-0.574-2.296-0.438-0.697 0.135-1.21 0.525-1.541 1.169v0c-0.252 0.491-0.304 0.986-0.158 1.487 0.137 0.504 0.404 1.01 0.8 1.52 0.39 0.506 0.81 1.013 1.259 1.519v0c0.394 0.441 0.772 0.896 1.136 1.367 0.355 0.473 0.632 0.981 0.831 1.524 0.208 0.54 0.294 1.122 0.259 1.745-0.039 0.615-0.25 1.294-0.632 2.04v0c-0.422 0.822-1.011 1.468-1.767 1.938-0.754 0.465-1.612 0.697-2.575 0.696-0.96-0.007-1.966-0.28-3.018-0.821v0c-0.692-0.355-1.311-0.77-1.859-1.244-0.545-0.481-1.018-0.985-1.419-1.513-0.405-0.521-0.746-1.028-1.023-1.521v0l1.772-1.163c0.216 0.424 0.49 0.864 0.825 1.319 0.331 0.446 0.707 0.863 1.128 1.251 0.418 0.394 0.857 0.709 1.318 0.945v0c0.491 0.252 1.022 0.409 1.596 0.471 0.576 0.071 1.117-0.002 1.624-0.22 0.51-0.209 0.925-0.623 1.243-1.244v0c0.273-0.532 0.357-1.045 0.252-1.539-0.096-0.497-0.309-0.991-0.639-1.482-0.334-0.485-0.709-0.961-1.127-1.429v0c-0.388-0.438-0.778-0.899-1.171-1.385-0.39-0.476-0.718-0.988-0.983-1.535-0.265-0.546-0.406-1.123-0.423-1.729-0.009-0.609 0.16-1.251 0.506-1.925v0c0.422-0.822 0.984-1.437 1.686-1.845 0.711-0.412 1.504-0.617 2.377-0.618 0.871 0.006 1.76 0.223 2.668 0.652v0c1.011 0.519 1.838 1.096 2.482 1.733 0.641 0.643 1.165 1.296 1.571 1.959z" fill="#000000" data-fill-palette-color="quaternary"></path><path d="M87.489 223.719l-2.254-0.467 11.211-16.333 0.147 0.031 3.777 19.438-2.634-0.546-2.653-15.439 1.862-0.734zM89.899 219.506l1.076-1.853 6.392 1.324 0.349 2.149z" fill="#000000" data-fill-palette-color="quaternary"></path><path d="M121.982 227.691l-0.08-0.002-13.263-14.052 0.683 0.194-0.241 13.024-2.351-0.051 0.39-18.074 0.119 0.002 13.123 14.09-0.555-0.132 0.234-13.143 2.331 0.05z" fill="#000000" data-fill-palette-color="quaternary"></path><path d="M135.707 224.838l-5.531 1.058-3.298-17.227 4.699-0.899c1.697-0.325 3.195-0.341 4.496-0.049 1.301 0.292 2.399 0.799 3.294 1.52 0.894 0.715 1.611 1.562 2.151 2.541 0.544 0.971 0.916 1.976 1.114 3.013v0c0.249 1.299 0.243 2.507-0.016 3.626-0.252 1.124-0.706 2.127-1.361 3.011-0.656 0.883-1.46 1.615-2.411 2.196-0.95 0.588-1.995 0.991-3.137 1.21zM129.612 210.439l2.451 12.803 2.77-0.53c0.953-0.182 1.803-0.494 2.551-0.935 0.748-0.441 1.367-0.989 1.856-1.644 0.49-0.655 0.83-1.407 1.02-2.255 0.182-0.853 0.177-1.779-0.015-2.778v0c-0.204-1.064-0.558-1.963-1.064-2.698-0.499-0.736-1.105-1.317-1.815-1.743-0.704-0.427-1.464-0.704-2.28-0.832-0.817-0.134-1.647-0.121-2.489 0.04v0z" fill="#000000" data-fill-palette-color="quaternary"></path><path d="M152.532 201.189l4.037-2.02c1.575-0.788 2.977-1.088 4.207-0.901 1.224 0.19 2.177 0.965 2.858 2.326v0c0.413 0.826 0.584 1.636 0.513 2.428-0.074 0.802-0.361 1.544-0.86 2.225-0.499 0.681-1.194 1.273-2.085 1.778v0l-0.847-0.935c1.073-0.499 2.114-0.786 3.124-0.861 1.013-0.069 1.921 0.083 2.723 0.454 0.805 0.377 1.422 0.994 1.85 1.849v0c0.389 0.778 0.578 1.52 0.566 2.224-0.006 0.701-0.168 1.35-0.485 1.948-0.315 0.603-0.743 1.144-1.283 1.622-0.535 0.476-1.135 0.88-1.8 1.213v0l-4.671 2.336zM158.073 207.008l2.371-1.186c0.868-0.434 1.377-0.99 1.528-1.667 0.142-0.68 0.04-1.368-0.308-2.063v0c-0.41-0.82-0.963-1.294-1.658-1.422-0.692-0.122-1.466 0.032-2.322 0.46v0l-2.041 1.021zM161.506 213.871l2.46-1.23c0.576-0.288 1.062-0.639 1.457-1.053 0.398-0.422 0.651-0.883 0.758-1.381 0.098-0.502 0.009-1.03-0.268-1.583v0c-0.303-0.606-0.706-1.003-1.208-1.189-0.499-0.181-1.04-0.223-1.623-0.125-0.579 0.104-1.136 0.29-1.671 0.558v0l-2.326 1.164z" fill="#000000" data-fill-palette-color="quaternary"></path><path d="M165.596 193.817l3.756-2.765c0.717-0.528 1.447-0.92 2.189-1.178 0.743-0.258 1.476-0.365 2.202-0.321 0.721 0.038 1.409 0.233 2.064 0.585 0.649 0.355 1.238 0.892 1.765 1.609v0c0.413 0.562 0.737 1.169 0.97 1.822 0.224 0.652 0.31 1.335 0.259 2.05-0.057 0.718-0.291 1.431-0.704 2.138-0.413 0.716-1.061 1.4-1.944 2.05v0l-2.095 1.541 3.828 5.202-1.894 1.394zM172.723 199.534l2.055-1.512c0.562-0.413 0.964-0.842 1.208-1.284 0.253-0.442 0.382-0.871 0.388-1.289 0.012-0.421-0.053-0.823-0.194-1.205-0.132-0.381-0.299-0.708-0.499-0.982v0c-0.213-0.289-0.482-0.549-0.809-0.778-0.321-0.234-0.685-0.404-1.091-0.508-0.407-0.105-0.845-0.112-1.316-0.022-0.468 0.081-0.952 0.304-1.449 0.67v0l-2.191 1.613zM175.691 199.095l2.207-1.71 8.063 3.222-2.191 1.613z" fill="#000000" data-fill-palette-color="quaternary"></path><path d="M190.661 195.899l-12.652-12.149 7.903-8.231 1.625 1.56-6.275 6.535 3.853 3.699 5.598-5.829 1.625 1.559-5.598 5.83 3.925 3.769 6.509-6.779 1.625 1.56z" fill="#000000" data-fill-palette-color="quaternary"></path><path d="M206.447 177.067l-19.238-3.418 1.403-2.331 13.928 2.829-0.361 0.272-5.902-7.609 3.284 0.708zM210.858 169.695l-19.308-3.262 1.212-2.016 13.966 2.399-0.337 0.367-8.888-10.649 1.284-2.135z" fill="#000000" data-fill-palette-color="quaternary"></path><path d="M204.188 142.374l1.394 1.442c-0.493 0.46-0.965 0.988-1.415 1.584-0.452 0.602-0.79 1.222-1.015 1.861v0c-0.312 0.883-0.353 1.661-0.125 2.333 0.228 0.672 0.683 1.129 1.366 1.369v0c0.52 0.183 1.018 0.169 1.495-0.043 0.481-0.204 0.946-0.536 1.398-0.997 0.449-0.455 0.895-0.939 1.336-1.452v0c0.384-0.449 0.784-0.886 1.201-1.31 0.421-0.415 0.887-0.758 1.399-1.029 0.507-0.279 1.072-0.443 1.694-0.49 0.614-0.044 1.316 0.073 2.106 0.351v0c0.871 0.307 1.591 0.804 2.159 1.49 0.562 0.684 0.907 1.503 1.035 2.458 0.122 0.952-0.013 1.986-0.406 3.101v0c-0.258 0.733-0.586 1.403-0.983 2.009-0.403 0.605-0.839 1.141-1.308 1.611-0.462 0.471-0.919 0.877-1.37 1.218v0l-1.391-1.6c0.391-0.271 0.79-0.602 1.196-0.994 0.398-0.388 0.76-0.817 1.088-1.287 0.334-0.467 0.587-0.945 0.759-1.433v0c0.183-0.52 0.267-1.068 0.252-1.644-0.007-0.58-0.152-1.107-0.436-1.581-0.275-0.478-0.742-0.832-1.4-1.064v0c-0.564-0.199-1.084-0.213-1.56-0.043-0.48 0.162-0.941 0.44-1.382 0.834-0.435 0.396-0.857 0.832-1.264 1.308v0c-0.382 0.443-0.787 0.892-1.215 1.347-0.42 0.451-0.882 0.844-1.388 1.18-0.506 0.336-1.058 0.553-1.657 0.653-0.603 0.09-1.261 0.01-1.975-0.242v0c-0.871-0.307-1.556-0.781-2.056-1.423-0.504-0.65-0.814-1.407-0.932-2.272-0.111-0.863-0.016-1.774 0.287-2.731v0c0.378-1.071 0.839-1.969 1.383-2.694 0.55-0.722 1.127-1.329 1.73-1.82z" fill="#000000" data-fill-palette-color="quaternary"></path><path d="M2.828 117.419c0-3.856 3.126-6.981 6.981-6.981 3.856 0 6.981 3.126 6.981 6.981 0 3.856-3.126 6.981-6.981 6.981-3.856 0-6.981-3.126-6.981-6.981z" fill="#000000" data-fill-palette-color="quaternary"></path><path d="M211.592 117.419c0-3.856 3.126-6.981 6.981-6.981 3.856 0 6.981 3.126 6.981 6.981 0 3.856-3.126 6.981-6.981 6.981-3.856 0-6.981-3.126-6.981-6.981z" fill="#000000" data-fill-palette-color="quaternary"></path></g></svg></g></svg></g></svg></g></svg></g></svg></g><defs></defs></svg><rect width="342.85155851775386" height="342.85155851775386" fill="none" stroke="none" visibility="hidden"></rect></g></svg></g></svg>